<svg width="34" height="36" viewBox="0 0 34 36" fill="none" xmlns="http://www.w3.org/2000/svg">
<path d="M17 4.41667C19.3375 4.41667 21.25 6.40417 21.25 8.83333C21.25 11.2625 19.3375 13.25 17 13.25C14.6625 13.25 12.75 11.2625 12.75 8.83333C12.75 6.40417 14.6625 4.41667 17 4.41667ZM17 26.5C22.7375 26.5 29.325 29.3487 29.75 30.9167H4.25C4.73875 29.3267 11.2837 26.5 17 26.5ZM17 0C12.3038 0 8.5 3.95292 8.5 8.83333C8.5 13.7137 12.3038 17.6667 17 17.6667C21.6963 17.6667 25.5 13.7137 25.5 8.83333C25.5 3.95292 21.6963 0 17 0ZM17 22.0833C11.3263 22.0833 0 25.0425 0 30.9167V35.3333H34V30.9167C34 25.0425 22.6737 22.0833 17 22.0833Z" fill="#3b82f6"/>
</svg>
