<svg width="50" height="42" viewBox="0 0 50 42" fill="none" xmlns="http://www.w3.org/2000/svg">
<path d="M25 1.75L6.25 8.75V19.25C6.25 28.9625 14.25 38.045 25 40.25C35.75 38.045 43.75 28.9625 43.75 19.25V8.75L25 1.75ZM39.5833 19.25C39.5833 27.16 33.375 34.4575 25 36.6275C16.625 34.4575 10.4167 27.16 10.4167 19.25V11.025L25 5.5825L39.5833 11.025V19.25ZM15.4375 20.2825L12.5 22.75L20.8333 29.75L37.5 15.75L34.5625 13.265L20.8333 24.7975L15.4375 20.2825Z" fill="#3b82f6"/>
<path opacity="0.3" d="M10.4167 11.025V19.25C10.4167 27.16 16.625 34.4575 25 36.6275C33.375 34.475 39.5834 27.16 39.5834 19.25V11.025L25 5.58252L10.4167 11.025ZM37.5 15.75L20.8334 29.75L12.5 22.75L15.4375 20.2825L20.8334 24.7975L34.5625 13.265L37.5 15.75Z" fill="#3b82f6"/>
</svg>
